<?xml version="1.0" encoding="utf-8"?>
<!-- Generator: Adobe Illustrator 16.0.0, SVG Export Plug-In . SVG Version: 6.00 Build 0)  -->
<!DOCTYPE svg PUBLIC "-//W3C//DTD SVG 1.1//EN" "http://www.w3.org/Graphics/SVG/1.1/DTD/svg11.dtd">
<svg version="1.1" id="Layer_1" xmlns="http://www.w3.org/2000/svg" xmlns:xlink="http://www.w3.org/1999/xlink" x="0px" y="0px"
	 width="199.205px" height="57.205px" viewBox="0 0 199.205 57.205" enable-background="new 0 0 199.205 57.205"
	 xml:space="preserve">
<g>
	<defs>
		<rect id="SVGID_1_" y="0" width="199.205" height="57.205"/>
	</defs>
	<clipPath id="SVGID_2_">
		<use xlink:href="#SVGID_1_"  overflow="visible"/>
	</clipPath>
	<path clip-path="url(#SVGID_2_)" fill="#B2B3B6" d="M199.205,4.745c0,2.26-1.609,3.932-3.873,3.932c-2.285,0-3.89-1.672-3.89-3.932
		c0-2.262,1.604-3.953,3.89-3.953C197.596,0.792,199.205,2.482,199.205,4.745 M198.497,4.745c0-1.909-1.262-3.285-3.165-3.285
		c-1.931,0-3.188,1.376-3.188,3.285s1.257,3.285,3.188,3.285C197.235,8.03,198.497,6.654,198.497,4.745 M196.002,5.118l1.179,1.692
		l-1.002,0.02l-1.085-1.672h-0.447V6.83h-0.853V2.601h1.831c0.863,0,1.418,0.491,1.418,1.278C197.043,4.549,196.649,5,196.002,5.118
		 M194.646,4.449h0.924c0.349,0,0.625-0.156,0.625-0.549c0-0.375-0.276-0.531-0.625-0.531h-0.924V4.449z"/>
	<path clip-path="url(#SVGID_2_)" fill="#B2B3B6" d="M0,33.589h4.128c0.343,3.441,3.325,5.904,8.427,5.904
		c4.468,0,6.988-2.407,6.988-5.388c0-7.738-18.799-3.21-18.799-14.959c0-4.644,4.413-8.484,11.006-8.484
		c6.703,0,11.119,3.552,11.462,9.573H19.2c-0.227-3.498-2.808-6.135-7.564-6.135c-4.183,0-6.822,2.237-6.822,4.988
		c0,8.483,18.514,3.955,18.688,15.018c0,5.044-4.413,8.771-10.892,8.771C5.503,42.876,0.515,39.322,0,33.589"/>
	<path clip-path="url(#SVGID_2_)" fill="#B2B3B6" d="M62.364,26.711c0,9.802-6.364,16.165-14.907,16.165
		c-6.247,0-10.601-3.439-12.438-7.34v21.668h-3.951V11.122h3.951V18c1.837-3.956,6.191-7.337,12.438-7.337
		C56,10.663,62.364,16.91,62.364,26.711 M35.02,26.77c0,7.796,5.273,12.61,11.636,12.61c6.595,0,11.636-4.756,11.636-12.668
		c0-7.968-5.041-12.552-11.636-12.552C40.292,14.16,35.02,18.974,35.02,26.77"/>
	<path clip-path="url(#SVGID_2_)" fill="#B2B3B6" d="M97.151,24.075V42.42h-3.95V24.534c0-6.937-3.785-10.49-9.518-10.49
		c-5.845,0-9.915,3.668-9.915,11.293V42.42h-4.012V0h4.012v16.45c2.006-3.838,6.131-5.902,10.892-5.902
		C91.595,10.548,97.151,14.904,97.151,24.075"/>
	<path clip-path="url(#SVGID_2_)" fill="#B2B3B6" d="M134.24,28.317h-25.967c0.343,7.336,5.444,11.176,11.293,11.176
		c5.328,0,8.941-2.808,10.087-6.99h4.244c-1.434,5.903-6.479,10.374-14.331,10.374c-8.887,0-15.36-6.191-15.36-16.107
		c0-9.973,6.357-16.107,15.36-16.107c9.168,0,14.787,6.535,14.787,14.5C134.354,26.425,134.354,27.227,134.24,28.317 M119.395,14.1
		c-5.677,0-10.662,3.67-11.121,10.949h22.011C130.456,17.771,125.186,14.1,119.395,14.1"/>
	<path clip-path="url(#SVGID_2_)" fill="#B2B3B6" d="M156.423,10.547v4.185h-1.09c-5.218,0-9.631,2.35-9.631,10.203v17.482h-4.012
		V11.121h4.012v5.561C147.423,12.841,151.033,10.547,156.423,10.547"/>
	<path clip-path="url(#SVGID_2_)" fill="#B2B3B6" d="M190.64,28.317h-25.967c0.349,7.336,5.45,11.176,11.293,11.176
		c5.334,0,8.941-2.808,10.087-6.99h4.244c-1.433,5.903-6.474,10.374-14.331,10.374c-8.881,0-15.36-6.191-15.36-16.107
		c0-9.973,6.363-16.106,15.36-16.106c9.174,0,14.79,6.536,14.79,14.499C190.756,26.425,190.756,27.227,190.64,28.317 M175.8,14.101
		c-5.677-0.001-10.668,3.67-11.127,10.948l22.017,0.001C186.861,17.771,181.582,14.101,175.8,14.101"/>
</g>
</svg>
